<svg xmlns="http://www.w3.org/2000/svg" viewBox="0 0 100 100">
  <circle cx="50" cy="50" r="48" fill="#160e04"/>
  <circle cx="50" cy="50" r="48" fill="none" stroke="#c09040" stroke-width="2" opacity="0.6"/>

  <path d="M22 56 L14 36 L38 48 Z" fill="#6a4a20"/>
  <path d="M78 56 L86 36 L62 48 Z" fill="#6a4a20"/>
  <ellipse cx="50" cy="62" rx="26" ry="20" fill="#7a5a28"/>
  <ellipse cx="50" cy="40" rx="22" ry="22" fill="#7a5a28"/>
  <path d="M28 24 L34 14 L40 28 Z" fill="#5a3a18"/>
  <path d="M72 24 L66 14 L60 28 Z" fill="#5a3a18"/>
  <circle cx="40" cy="40" r="10" fill="#f0e8d0"/>
  <circle cx="60" cy="40" r="10" fill="#f0e8d0"/>
  <circle cx="40" cy="40" r="6" fill="#d08020"/>
  <circle cx="60" cy="40" r="6" fill="#d08020"/>
  <circle cx="40" cy="40" r="3" fill="#0a0a00"/>
  <circle cx="60" cy="40" r="3" fill="#0a0a00"/>
  <path d="M46 50 L50 44 L54 50 Z" fill="#e0a030"/>
</svg>