<svg xmlns="http://www.w3.org/2000/svg" viewBox="0 0 100 100">
  <circle cx="50" cy="50" r="48" fill="#2f4a2c"/>
  <circle cx="50" cy="50" r="48" fill="none" stroke="#9bd66b" stroke-width="2" opacity="0.5"/>
  <path d="M22 38 L36 30 L34 48 Z" fill="#6fae4e"/>
  <path d="M78 38 L64 30 L66 48 Z" fill="#6fae4e"/>
  <path d="M50 26 C68 26 74 44 70 60 C66 76 58 84 50 84 C42 84 34 76 30 60 C26 44 32 26 50 26 Z" fill="#7cc15a"/>
  <path d="M40 54 L46 60 L40 64 Z" fill="#1c2a18"/>
  <path d="M60 54 L54 60 L60 64 Z" fill="#1c2a18"/>
  <path d="M40 72 Q50 80 60 72" fill="none" stroke="#1c2a18" stroke-width="3" stroke-linecap="round"/>
</svg>
